<svg xmlns="http://www.w3.org/2000/svg" viewBox="0 0 220 60" fill="none">
  <g fill="#FFFFFF">
    <path d="M19 47c-3-3-5-7-5-11 0-3 1-5 3-7-2-3-2-7 0-10 2-2 4-3 7-3 2-5 6-8 11-8 2 0 4 1 6 2 2-2 5-3 8-3 5 0 9 3 11 8-2 1-4 3-5 5-1-1-3-2-5-2-2 0-4 1-5 3 3 1 5 3 7 6-2 1-4 2-5 4-1-2-3-4-6-5-1 3-3 5-6 6 3 1 5 3 6 6 2-2 4-3 7-3 2 0 4 1 5 2 1 3 3 5 5 7-2 1-4 2-6 2-3 0-6-1-8-3-2 1-4 2-6 2-5 0-9-3-11-8-3 0-5-1-7-3z"/>
    <path d="M18 15c5 5 8 11 11 17 3 6 6 13 9 21h4c-2-9-5-17-9-24-3-7-7-12-12-17z"/>

    <rect x="66" y="14" width="10" height="32" rx="1"/>
    <rect x="86" y="14" width="10" height="32" rx="1"/>
    <rect x="106" y="14" width="10" height="32" rx="1"/>
    <rect x="126" y="14" width="10" height="32" rx="1"/>

    <path d="M169 19l2 9 8-5-5 8 9 2-9 2 5 8-8-5-2 9-2-9-8 5 5-8-9-2 9-2-5-8 8 5z"/>
    <circle cx="169" cy="33" r="3.2"/>
  </g>
</svg>
