<?xml version="1.0" encoding="UTF-8" standalone="no"?>
<!-- Created with Inkscape (http://www.inkscape.org/) -->

<svg
   version="1.1"
   id="svg1"
   width="377"
   height="157"
   viewBox="0 0 377 157"
   sodipodi:docname="BOIA.svg"
   inkscape:version="1.4.4 (dcaf3e7d9e, 2026-05-05)"
   xmlns:inkscape="http://www.inkscape.org/namespaces/inkscape"
   xmlns:sodipodi="http://sodipodi.sourceforge.net/DTD/sodipodi-0.dtd"
   xmlns="http://www.w3.org/2000/svg"
   xmlns:svg="http://www.w3.org/2000/svg">
  <defs
     id="defs1" />
  <sodipodi:namedview
     id="namedview1"
     pagecolor="#ffffff"
     bordercolor="#000000"
     borderopacity="0.25"
     inkscape:showpageshadow="2"
     inkscape:pageopacity="0.0"
     inkscape:pagecheckerboard="0"
     inkscape:deskcolor="#d1d1d1"
     inkscape:zoom="1.6110356"
     inkscape:cx="172.55982"
     inkscape:cy="25.449469"
     inkscape:window-width="1920"
     inkscape:window-height="1011"
     inkscape:window-x="0"
     inkscape:window-y="0"
     inkscape:window-maximized="1"
     inkscape:current-layer="g1" />
  <g
     inkscape:groupmode="layer"
     inkscape:label="Image"
     id="g1">
    <path
       style="fill:#999999;fill-opacity:1"
       d="m 113.29297,139.57034 c -2.31387,-1.32307 -5.07288,-2.17915 -6.13113,-1.90241 -1.30035,0.34005 -3.09352,-0.66627 -5.53155,-3.1043 C 97.949516,130.88285 93,130.29638 93,133.54102 c 0,1.80066 -3.405912,2.74837 -7.022471,1.95404 C 83.44084,134.93791 83,135.14023 83,136.86153 c 0,3.14438 -1.566862,3.37381 -4.749851,0.6955 -1.890634,-1.59086 -3.655301,-2.26384 -5.008367,-1.91001 -1.620796,0.42385 -2.792895,-0.42816 -5.228099,-3.80034 -1.726409,-2.39068 -4.11742,-4.59059 -5.313356,-4.88871 -1.432626,-0.35711 -2.719575,-2.0178 -3.772401,-4.86792 -1.944635,-5.26435 -4.220506,-6.80661 -7.474493,-5.06513 -1.979516,1.05941 -2.853247,0.93674 -5.827634,-0.8182 -2.998931,-1.76941 -3.66846,-1.86024 -4.684837,-0.63558 -1.864087,2.24608 -2.909122,1.71838 -4.753016,-2.40009 -0.942849,-2.10592 -2.240381,-3.65357 -2.883404,-3.43923 -1.561985,0.52066 -2.915087,-2.30477 -3.569925,-7.45442 -0.295324,-2.322425 -1.244982,-4.930622 -2.11035,-5.79599 -1.169378,-1.169378 -1.43395,-2.781302 -1.030338,-6.277404 C 27.13699,85.5 27.13699,85.5 24.637579,88.42978 c -2.112108,2.475788 -2.740116,2.730011 -4.052776,1.6406 -1.373042,-1.139524 -1.148891,-1.761717 1.930916,-5.359778 4.388621,-5.127117 4.38949,-7.89993 0.0042,-13.251657 C 18.078012,66.038241 19.902227,62.585752 24.529614,67.65533 27.12616,70.5 27.12616,70.5 26.519112,65.865397 c -0.45531,-3.476132 -0.217768,-5.023884 0.950313,-6.191965 0.856548,-0.856548 1.805978,-3.045977 2.109843,-4.865396 C 30.774462,47.651711 31.052521,47 32.910644,47 c 1.107825,0 2.103268,-0.918863 2.437519,-2.25 1.153513,-4.59381 3.303146,-6.473075 5.231496,-4.573509 1.592767,1.568993 1.92389,1.557508 5.164053,-0.179115 C 48.982132,38.261686 52,38.247669 52,39.968317 52,42.564406 57.041411,39.393662 58.084718,36.141396 59.39165,32.067338 61.711354,29 63.485468,29 c 0.646521,0 2.630684,-2.026318 4.409251,-4.502929 2.600191,-3.6207 3.670573,-4.393296 5.463271,-3.943357 1.49664,0.375633 2.841327,-0.116476 4.090749,-1.497071 C 79.932342,16.312292 83,16.350066 83,19.125 c 0,1.803153 0.431853,2.038629 2.851314,1.554737 C 89.937375,19.862525 93,20.906534 93,23.116631 c 0,3.334421 5.115431,2.391227 9.05052,-1.668753 2.27854,-2.350861 4.07429,-3.386997 5.31,-3.06385 1.02694,0.26855 4.04676,-0.720496 6.71071,-2.197878 4.04712,-2.244459 5.16531,-2.488037 6.80027,-1.48132 1.35874,0.836637 2.94325,0.92189 5.18497,0.278973 4.00532,-1.14871 5.26389,-0.439972 4.67637,2.633414 C 130.40283,19.343582 130.72881,20 131.91617,20 134.48988,20 138,22.917511 138,25.056704 138,26.125517 138.41704,27 138.92676,27 c 0.50972,0 1.64973,1.449238 2.53337,3.220528 1.69459,3.396895 -0.88373,7.321624 -4.01941,6.118352 -0.65045,-0.249602 -1.45158,0.247041 -1.78029,1.103649 -0.81207,2.116208 -2.88327,1.956628 -5.9539,-0.45873 -2.56318,-2.016202 -2.56318,-2.016202 -2.88486,0.25 -0.33011,2.325653 -0.8708,2.433955 -7.25129,1.452452 -2.71726,-0.417993 -8.47755,-5.873367 -8.54348,-8.091239 -0.0148,-0.497743 -0.96137,-0.0593 -2.1035,0.974311 -2.00191,1.811699 -2.18819,1.815255 -5.17884,0.09886 -2.77524,-1.592771 -3.19403,-1.616415 -3.973087,-0.224311 C 99.292504,32.299742 98.24798,33 97.45031,33 96.652639,33 96,33.851855 96,34.893011 96,37.199792 94.269605,37.965357 90.628761,37.269365 88.102242,36.78639 87.908733,36.973259 88.192142,39.622363 88.474999,42.266307 88.215765,42.519382 85,42.73866 78.185241,43.203349 76.702402,42.979193 73.500523,41.000323 70.046166,38.865413 68.928392,38.546484 69.118421,39.75 69.523572,42.315956 68.681296,43 65.116631,43 c -4.115714,0 -5.51771,1.811552 -5.15701,6.663493 0.121431,1.633412 -0.70651,2.47713 -3.379189,3.443583 -3.191654,1.154117 -3.3944,1.441005 -2.060229,2.915248 2.08232,2.300937 1.842289,3.72785 -0.766365,4.555805 -1.235388,0.392097 -2.734845,1.381219 -3.332126,2.198049 -0.612398,0.837505 -3.339568,1.701689 -6.253839,1.981713 C 39.924793,65.165598 39,65.595627 39,67.160955 39,68.279798 37.554004,69.920609 35.5,71.132501 31.589407,73.439807 30.984291,75 34,75 c 1.555556,0 2,0.666667 2,3 0,2.333333 -0.444444,3 -2,3 -3.07901,0 -2.379438,1.843577 1.587793,4.1843 2.844488,1.678289 3.494746,2.603595 3.138672,4.466275 C 38.296176,91.901486 38.524432,92 44.170057,92 c 4.315476,0 6.046778,0.401488 6.468317,1.5 0.316582,0.825 1.147359,1.5 1.84617,1.5 2.689729,0 3.91914,2.896453 2.088168,4.919654 -1.630268,1.801426 -1.547894,1.933436 1.920845,3.078216 2.772714,0.91508 3.586694,1.70191 3.464692,3.34911 -0.355356,4.79785 1.053209,6.65302 5.051394,6.65302 3.65715,0 5.779174,1.91465 4.469907,4.03309 -0.289816,0.46893 1.502946,-0.28192 3.983915,-1.66856 5.949648,-3.32532 15.262766,-2.4361 14.723677,1.40582 C 87.907675,118.76203 88.307918,119 91.937142,119 95.333333,119 96,119.32818 96,121 c 0,1.1 0.652639,2 1.45031,2 0.79767,0 1.854309,0.72191 2.348086,1.60424 0.821094,1.46721 1.174764,1.461 4.140614,-0.0727 3.04624,-1.57527 3.35859,-1.57219 5.15192,0.0507 1.04999,0.95023 1.90907,1.30732 1.90907,0.79354 0,-1.6272 7.02686,-8.24226 8.80002,-8.28431 0.93499,-0.0222 2.82498,-0.16433 4.19998,-0.31591 1.91398,-0.211 2.57277,0.23554 2.81046,1.90499 0.31045,2.18061 0.31045,2.18061 3.88356,0.0724 3.31207,-1.95417 3.66273,-1.98562 4.79979,-0.4306 0.67467,0.92267 1.87856,1.67758 2.6753,1.67758 3.74667,0 5.17612,2.43171 3.42269,5.82249 -0.90374,1.74763 -2.05171,3.17751 -2.55106,3.17751 -0.49934,0 -1.05029,1.22318 -1.22432,2.71817 -0.24379,2.09427 -1.0624,2.93084 -3.56642,3.64466 -2.45415,0.69962 -3.25,1.48881 -3.25,3.22281 0,3.09185 -1.30707,3.6997 -5.47871,2.54785 -2.11411,-0.58373 -3.73058,-0.60386 -4.07245,-0.0507 -0.94749,1.53307 -3.73306,1.01651 -8.15587,-1.51244 z M 73,78 V 50 h 6.5 6.5 v 28 28 H 79.5 73 Z"
       id="path1"
       sodipodi:nodetypes="cssssssssssssssssssssscsssssssssssssssssssssssssssssssssssssssssssssssssssssssssssssssssssssssssssssssssssssssccccccccccc" />
  </g>
</svg>
